<svg width="19" height="20" viewBox="0 0 19 20" fill="none" xmlns="http://www.w3.org/2000/svg">
<path d="M15.4623 0H3.53778C3.23036 0 2.98114 0.249227 2.98114 0.556641V18.4434C2.98114 18.6685 3.11677 18.8715 3.32477 18.9576C3.39364 18.9862 3.46597 19 3.53767 19C3.68254 19 3.82489 18.9435 3.9314 18.8369L9.50014 13.2683L15.0687 18.8369C15.2279 18.9961 15.4673 19.0438 15.6753 18.9576C15.8833 18.8715 16.0189 18.6685 16.0189 18.4434V0.556641C16.0189 0.249227 15.7697 0 15.4623 0ZM9.5001 11.9244C9.35248 11.9244 9.21091 11.9831 9.10652 12.0875L4.09442 17.0995V1.11328H14.9056V17.0994L9.89372 12.0875C9.78933 11.9831 9.64776 11.9244 9.5001 11.9244Z" fill="black"/>
</svg>
