<svg width="20" height="20" viewBox="0 0 20 20" fill="none" xmlns="http://www.w3.org/2000/svg">
<circle cx="10" cy="10" r="10" fill="#FF9E45"/>
<path d="M11.3757 4.81818L11.1818 11.9474H9.36222L9.16335 4.81818H11.3757ZM10.272 15.1293C9.94389 15.1293 9.66217 15.0133 9.42685 14.7812C9.19152 14.5459 9.07552 14.2642 9.07884 13.9361C9.07552 13.6113 9.19152 13.3329 9.42685 13.1009C9.66217 12.8688 9.94389 12.7528 10.272 12.7528C10.5869 12.7528 10.8636 12.8688 11.1023 13.1009C11.3409 13.3329 11.4619 13.6113 11.4652 13.9361C11.4619 14.1548 11.4039 14.3554 11.2912 14.5376C11.1818 14.7166 11.0376 14.8608 10.8587 14.9702C10.6797 15.0762 10.4841 15.1293 10.272 15.1293Z" fill="white"/>
</svg>
