<svg width="24" height="24" viewBox="0 0 24 24" fill="none" xmlns="http://www.w3.org/2000/svg">
<g clip-path="url(#clip0_772_3357)">
<path d="M22.6363 1.11818C21.9272 0.409091 20.9726 0 19.909 0H4.09082C3.02718 0 2.07263 0.436364 1.36354 1.11818C0.654452 1.82727 0.245361 2.78182 0.245361 3.84545V16.4182V17.5909V20.1273C0.245361 21.1909 0.681725 22.1455 1.36354 22.8545C2.07263 23.5636 3.02718 23.9727 4.09082 23.9727H19.909V24C20.9726 24 21.9272 23.5636 22.6363 22.8818C23.3454 22.1727 23.7545 21.2182 23.7545 20.1545V17.6182V14.1273V3.84545C23.7545 2.78182 23.3181 1.82727 22.6363 1.11818ZM22.309 17.6182V20.1545C22.309 20.8091 22.0363 21.4091 21.5999 21.8455C21.1635 22.2818 20.5635 22.5545 19.909 22.5545H4.09082C3.43627 22.5545 2.83627 22.2818 2.39991 21.8455C1.96354 21.3818 1.71809 20.8091 1.71809 20.1545V17.6182V16.7455L6.54536 11.8909L10.6635 16.0091C10.9363 16.2818 11.3999 16.2818 11.6999 16.0091L17.7817 9.9L22.309 14.4273V17.6182ZM22.309 12.3818L18.2999 8.34546C18.0272 8.07273 17.5635 8.04545 17.2635 8.34546L11.1817 14.4545L7.06354 10.3364C6.79082 10.0636 6.32718 10.0364 6.02718 10.3364L1.71809 14.6727V3.84545C1.71809 3.19091 1.96354 2.61818 2.39991 2.18182C2.83627 1.74545 3.43627 1.47273 4.09082 1.47273H19.909C20.5635 1.47273 21.1635 1.74545 21.5999 2.18182C22.0363 2.61818 22.309 3.21818 22.309 3.87273V12.3818Z" fill="black"/>
<path d="M11.0454 10.1727C12.1299 10.1727 13.0091 9.29358 13.0091 8.20909C13.0091 7.1246 12.1299 6.24545 11.0454 6.24545C9.96094 6.24545 9.08179 7.1246 9.08179 8.20909C9.08179 9.29358 9.96094 10.1727 11.0454 10.1727Z" fill="black"/>
</g>
<defs>
<clipPath id="clip0_772_3357">
<rect width="24" height="24" fill="white"/>
</clipPath>
</defs>
</svg>
